<?xml version="1.0" standalone="no"?>
<!DOCTYPE svg PUBLIC "-//W3C//DTD SVG 20010904//EN"
 "http://www.w3.org/TR/2001/REC-SVG-20010904/DTD/svg10.dtd">
<svg version="1.0" xmlns="http://www.w3.org/2000/svg"
 width="402.000000pt" height="387.000000pt" viewBox="0 0 402.000000 387.000000"
 preserveAspectRatio="xMidYMid meet">
<metadata>
Created by potrace 1.15, written by Peter Selinger 2001-2017
</metadata>
<g transform="translate(0.000000,387.000000) scale(0.100000,-0.100000)"
fill="#000000" stroke="none">
<path d="M1848 3762 c-11 -8 -40 -12 -71 -11 -29 1 -59 -1 -65 -5 -7 -4 -25
-6 -41 -4 -16 1 -36 -4 -45 -11 -9 -7 -25 -11 -36 -8 -11 3 -23 1 -26 -5 -3
-5 -16 -8 -27 -7 -12 1 -30 -1 -39 -5 -9 -4 -21 -5 -26 -2 -6 3 -15 -1 -22
-10 -7 -8 -19 -13 -26 -10 -7 3 -16 1 -20 -5 -3 -6 -12 -8 -20 -5 -8 3 -17 -1
-21 -10 -3 -8 -12 -13 -19 -10 -7 3 -16 1 -19 -4 -3 -5 -16 -9 -29 -8 -12 1
-37 -8 -54 -21 -18 -12 -36 -20 -41 -17 -5 3 -14 -1 -21 -9 -7 -8 -16 -12 -21
-10 -4 3 -17 -3 -29 -15 -11 -11 -20 -17 -20 -14 0 4 -7 1 -15 -6 -8 -7 -15
-9 -15 -6 0 4 -15 -4 -33 -18 -19 -14 -37 -23 -40 -20 -4 4 -9 -1 -13 -10 -3
-9 -10 -14 -14 -11 -5 3 -16 -5 -24 -17 -9 -12 -16 -19 -16 -15 0 13 -57 -21
-77 -45 -10 -13 -25 -24 -33 -26 -8 -2 -34 -20 -58 -40 -24 -20 -63 -53 -87
-73 -24 -21 -66 -63 -93 -95 -27 -33 -61 -70 -75 -83 -15 -13 -24 -28 -21 -33
3 -4 -1 -11 -9 -14 -14 -5 -83 -94 -73 -94 3 0 -8 -15 -25 -32 -16 -18 -29
-36 -29 -40 0 -17 -4 -23 -19 -35 -9 -7 -12 -13 -7 -13 5 0 1 -9 -9 -20 -10
-11 -14 -20 -10 -20 5 0 0 -7 -11 -15 -10 -8 -15 -15 -10 -15 5 0 3 -7 -4 -15
-7 -8 -9 -15 -4 -15 4 0 0 -6 -10 -13 -9 -7 -18 -19 -20 -27 -1 -8 -10 -29
-19 -46 -9 -17 -14 -34 -10 -37 3 -4 3 -13 0 -22 -4 -8 -6 -18 -6 -22 1 -3 -6
-10 -15 -15 -8 -5 -13 -15 -10 -22 3 -8 1 -17 -5 -20 -6 -4 -8 -13 -5 -20 3
-7 -2 -16 -10 -19 -9 -4 -13 -13 -10 -22 3 -8 3 -23 -1 -32 -5 -10 -7 -25 -6
-35 1 -9 -2 -19 -8 -22 -5 -3 -7 -15 -4 -27 4 -12 0 -25 -8 -30 -8 -5 -12 -21
-11 -43 2 -20 0 -41 -4 -48 -4 -6 -6 -34 -5 -61 1 -26 -3 -54 -9 -62 -15 -19
-15 -281 0 -300 6 -8 10 -36 9 -62 -1 -27 1 -55 5 -61 4 -7 6 -28 4 -48 -1
-22 3 -38 11 -43 8 -5 12 -18 8 -30 -3 -12 -1 -24 5 -27 5 -3 8 -15 5 -25 -3
-10 -1 -22 5 -25 5 -3 8 -15 5 -25 -3 -10 2 -24 9 -30 8 -7 13 -18 10 -25 -3
-7 -1 -16 5 -19 5 -4 7 -10 4 -15 -3 -5 2 -13 11 -18 10 -6 15 -16 11 -25 -3
-9 -2 -19 4 -23 6 -3 8 -12 5 -19 -2 -7 3 -23 12 -36 9 -13 18 -31 19 -39 1
-8 10 -20 19 -27 10 -7 14 -13 10 -13 -5 0 -3 -7 4 -15 7 -8 9 -15 4 -15 -5 0
-1 -7 9 -14 10 -8 18 -17 18 -20 -1 -3 -1 -7 0 -8 0 -2 2 -11 4 -22 2 -10 13
-28 24 -40 12 -13 19 -25 15 -28 -3 -4 4 -11 15 -18 12 -6 19 -15 16 -20 -3
-5 3 -13 12 -19 10 -6 14 -11 10 -11 -9 0 53 -90 63 -90 3 0 14 -14 24 -30 20
-35 236 -253 243 -246 3 2 19 -11 35 -30 17 -19 33 -33 35 -30 2 2 16 -7 30
-20 14 -13 28 -22 31 -19 3 3 12 -4 19 -15 8 -11 19 -18 24 -15 5 4 9 2 9 -4
0 -9 133 -90 155 -94 5 -1 15 -9 22 -17 7 -8 13 -11 13 -6 0 5 7 3 15 -4 8 -7
15 -9 15 -5 0 4 7 2 15 -5 8 -7 15 -9 15 -4 0 4 7 -1 15 -12 8 -10 15 -15 15
-10 0 5 7 3 15 -4 8 -7 15 -9 15 -5 0 5 9 0 20 -10 11 -10 20 -15 20 -10 0 4
6 2 13 -4 8 -6 17 -8 21 -3 4 4 12 -1 17 -10 5 -10 16 -15 23 -12 8 3 17 1 20
-5 4 -6 13 -8 20 -5 8 3 17 1 20 -5 4 -6 14 -7 23 -4 9 4 19 -1 25 -10 4 -9
15 -14 23 -11 8 4 23 3 33 -1 9 -5 26 -7 38 -6 11 1 26 -5 33 -12 6 -8 21 -13
31 -10 11 3 28 2 37 -2 10 -4 35 -7 57 -5 22 1 42 -4 46 -11 6 -8 35 -11 94
-10 47 1 91 -1 97 -5 15 -9 103 -9 118 0 6 4 49 6 96 5 55 -1 90 2 99 10 8 7
32 12 53 10 21 -1 46 2 56 6 9 4 27 5 38 2 12 -3 22 0 26 9 3 8 15 14 27 13
11 -1 29 1 39 6 9 4 24 4 32 1 9 -3 18 1 22 10 3 9 13 14 24 11 11 -3 22 -1
25 4 3 5 9 7 14 4 5 -3 12 0 15 6 4 5 13 8 20 5 8 -3 19 2 26 10 7 8 18 13 25
10 7 -3 16 -1 20 5 3 6 12 8 20 5 8 -3 17 1 20 9 4 8 10 13 14 10 5 -3 11 -1
15 5 4 6 10 8 15 5 5 -3 13 3 19 12 6 10 11 14 11 9 0 -5 6 -4 13 1 6 6 19 10
27 10 20 0 90 42 90 55 0 5 4 7 9 3 5 -3 12 -1 16 5 4 6 10 8 15 5 5 -3 16 5
24 17 9 12 16 19 16 14 0 -5 6 -3 13 3 8 6 16 8 20 5 3 -3 10 4 17 15 6 12 15
19 20 16 5 -3 12 0 17 7 4 7 28 27 52 43 25 17 65 50 90 75 25 24 49 43 52 43
3 -1 32 25 65 58 32 32 56 59 52 59 -3 0 15 21 41 46 25 25 46 50 46 54 0 5 8
15 18 22 10 8 19 20 20 28 2 8 17 30 34 49 18 19 30 38 28 42 -3 4 2 13 11 20
18 15 48 69 37 69 -4 0 2 7 13 15 10 8 15 15 10 15 -5 0 1 11 14 25 13 14 20
25 16 25 -5 0 -3 7 4 15 7 8 9 15 4 15 -5 0 -1 5 9 11 9 6 15 14 12 19 -3 5
-1 11 5 15 6 4 8 10 5 15 -3 5 -1 11 4 15 6 3 8 12 5 19 -3 7 2 16 11 20 9 3
13 11 10 16 -4 6 -1 17 5 25 7 8 9 15 4 15 -5 0 -1 5 8 11 9 5 15 16 12 23 -3
8 -1 17 4 20 6 3 8 15 5 26 -3 11 0 26 6 33 6 8 8 17 4 20 -3 4 1 15 10 25 10
10 14 21 11 25 -4 3 -3 14 1 24 4 10 7 34 6 54 -2 24 3 38 12 42 9 3 13 14 10
31 -3 14 -2 33 1 43 9 22 9 434 0 456 -3 10 -4 29 -1 43 3 17 -1 28 -10 31 -9
4 -14 18 -12 42 1 20 -2 44 -6 54 -4 10 -5 21 -1 24 3 3 1 12 -5 20 -6 7 -8
13 -4 13 4 0 2 7 -5 15 -7 8 -9 15 -5 15 4 0 2 7 -5 15 -7 9 -10 18 -7 22 4 3
2 12 -4 19 -6 8 -9 21 -5 29 3 9 -1 18 -10 22 -8 3 -13 12 -10 19 3 7 1 16 -5
19 -5 4 -7 11 -4 16 4 5 -1 12 -10 15 -9 4 -14 13 -11 20 3 7 1 16 -5 19 -5 4
-7 10 -4 15 3 5 1 11 -5 15 -6 4 -8 11 -5 16 4 5 -1 12 -9 15 -9 3 -13 10 -11
15 3 4 -3 17 -15 29 -11 11 -17 20 -14 20 4 0 1 6 -5 13 -6 8 -8 17 -4 20 3 4
-2 9 -11 13 -9 3 -14 10 -11 14 3 5 1 11 -5 15 -6 4 -8 10 -5 15 3 5 -5 16
-17 24 -12 9 -18 16 -13 16 6 1 1 9 -10 18 -11 10 -21 24 -23 32 -2 8 -10 20
-17 26 -8 6 -12 13 -9 16 3 3 -5 14 -18 25 -13 10 -24 25 -26 33 -5 19 -8 23
-138 157 -60 61 -111 111 -114 110 -4 -1 -20 12 -36 29 -28 29 -82 68 -95 69
-4 0 -16 11 -28 25 -11 14 -20 21 -21 16 0 -5 -11 1 -25 14 -14 13 -25 20 -25
15 0 -5 -10 1 -22 13 -13 11 -29 22 -37 24 -8 2 -23 11 -33 21 -10 10 -23 15
-28 12 -5 -3 -11 -1 -15 5 -4 6 -10 8 -15 5 -4 -3 -11 2 -14 11 -3 8 -10 13
-15 9 -5 -3 -12 -1 -16 5 -4 6 -10 8 -15 5 -4 -3 -11 2 -14 11 -3 8 -10 13
-15 9 -5 -3 -12 -1 -16 5 -4 6 -10 8 -15 5 -4 -3 -13 2 -20 10 -7 8 -16 13
-20 10 -5 -3 -11 -1 -15 4 -3 6 -12 8 -19 5 -8 -3 -17 -1 -20 5 -4 6 -13 8
-20 5 -7 -3 -16 2 -19 10 -4 9 -13 13 -21 10 -8 -3 -17 -1 -20 4 -3 6 -14 8
-25 5 -11 -3 -21 2 -24 11 -4 9 -13 13 -22 10 -8 -3 -23 -3 -32 1 -10 5 -25 7
-35 6 -9 -1 -19 2 -22 8 -3 5 -15 7 -27 4 -12 -4 -25 0 -29 8 -6 8 -23 12 -49
10 -22 -1 -46 1 -53 5 -6 4 -36 6 -66 5 -33 -2 -58 2 -62 9 -11 17 -297 19
-322 2z m300 -104 c7 -7 33 -11 62 -9 27 1 55 -1 62 -5 7 -4 31 -7 54 -5 23 1
45 -2 48 -7 3 -6 14 -8 25 -5 11 3 21 -2 24 -11 4 -9 13 -13 22 -10 8 3 23 3
33 -1 9 -5 27 -7 38 -6 12 1 24 -5 28 -14 3 -9 11 -13 16 -10 6 4 17 1 25 -5
8 -7 15 -9 15 -5 0 5 9 0 20 -10 11 -10 20 -15 20 -10 0 4 6 2 13 -4 8 -6 17
-8 20 -4 4 3 13 0 22 -7 8 -7 15 -9 15 -4 0 5 5 1 11 -9 6 -9 15 -15 20 -11 5
3 16 0 24 -6 8 -7 15 -9 15 -4 0 5 5 2 10 -6 5 -8 14 -16 20 -16 5 -1 12 -3
15 -4 3 -1 8 -3 13 -4 4 -1 18 -8 32 -16 14 -8 28 -14 32 -15 4 0 14 -9 22
-20 9 -11 16 -16 16 -11 0 5 7 3 15 -4 8 -7 15 -9 15 -4 0 4 6 -1 14 -12 8
-10 18 -19 23 -19 5 0 29 -16 53 -35 24 -19 45 -34 47 -32 4 3 21 -12 102 -85
34 -32 65 -57 67 -56 8 5 53 -44 47 -50 -3 -4 -176 -7 -383 -7 l-377 0 0 35
c1 34 -28 79 -44 69 -5 -3 -14 -2 -20 2 -6 4 -34 7 -61 7 -60 0 -92 -26 -92
-75 l-1 -33 -293 -3 c-225 -2 -292 0 -286 10 14 22 9 69 -8 85 -10 9 -18 13
-18 9 0 -4 -5 -4 -11 0 -14 8 -134 8 -149 -1 -5 -3 -8 -10 -5 -15 3 -5 1 -11
-5 -15 -6 -4 -7 -11 -4 -17 4 -6 0 -14 -7 -19 -8 -4 -14 -14 -14 -21 0 -10
-83 -13 -404 -15 -388 -2 -406 -3 -424 -22 -30 -30 -27 -115 5 -148 l24 -24
415 1 415 0 14 -24 c25 -48 10 -57 -95 -55 -79 1 -99 -1 -115 -16 -11 -10 -20
-14 -20 -9 0 5 -16 -8 -35 -29 -19 -21 -35 -35 -35 -31 0 5 -16 -7 -35 -26
-19 -19 -35 -30 -35 -25 0 4 -22 -15 -50 -43 -27 -28 -50 -48 -50 -44 0 3 -36
-29 -79 -73 -44 -43 -78 -82 -75 -86 2 -5 -5 -13 -16 -19 -11 -6 -18 -15 -15
-20 3 -5 1 -11 -4 -15 -6 -3 -8 -12 -5 -19 3 -7 -2 -18 -10 -25 -8 -7 -13 -18
-10 -26 3 -7 1 -16 -5 -19 -6 -4 -8 -13 -5 -20 3 -7 -2 -18 -10 -25 -7 -6 -12
-20 -9 -30 3 -10 0 -22 -6 -25 -5 -4 -8 -13 -5 -20 3 -8 1 -17 -4 -20 -6 -3
-8 -16 -5 -27 4 -14 0 -25 -10 -31 -9 -4 -14 -15 -11 -22 3 -8 1 -17 -4 -20
-6 -3 -8 -16 -5 -27 4 -14 0 -25 -10 -31 -9 -4 -14 -15 -11 -22 3 -8 1 -17 -5
-20 -6 -4 -8 -13 -5 -21 3 -8 -1 -24 -9 -36 -9 -12 -13 -27 -11 -34 3 -7 1
-16 -5 -19 -6 -4 -8 -13 -4 -21 3 -8 2 -23 -2 -32 -5 -10 -7 -28 -6 -39 1 -12
-5 -24 -13 -27 -9 -4 -13 -13 -10 -21 3 -8 1 -17 -4 -20 -6 -3 -8 -16 -5 -27
4 -14 0 -25 -11 -31 -9 -5 -14 -14 -10 -19 3 -6 2 -18 -2 -27 -4 -9 -6 -29 -5
-44 1 -14 -2 -29 -7 -32 -6 -3 -8 -16 -5 -27 4 -14 0 -25 -9 -30 -10 -5 -14
-18 -11 -33 3 -13 0 -27 -6 -30 -5 -4 -8 -13 -5 -20 3 -7 -2 -16 -10 -19 -9
-4 -13 -13 -10 -22 3 -8 3 -23 -1 -32 -5 -10 -7 -25 -6 -34 1 -9 -5 -21 -13
-28 -7 -6 -12 -20 -9 -30 3 -10 0 -22 -5 -25 -6 -3 -8 -15 -5 -26 3 -11 2 -28
-2 -37 -4 -10 -6 -62 -5 -115 0 -54 -2 -98 -6 -98 -8 0 -74 58 -74 65 0 3 0 9
0 14 0 5 -11 23 -26 40 -14 16 -24 31 -23 33 1 2 -11 23 -26 48 -16 25 -30 52
-31 60 -2 8 -11 20 -20 27 -10 7 -14 13 -10 13 5 0 3 7 -4 15 -7 8 -9 15 -4
15 5 0 0 7 -10 15 -11 8 -16 15 -12 15 5 0 3 7 -4 15 -7 9 -10 18 -7 22 4 3 2
12 -4 20 -6 7 -8 13 -4 13 5 0 0 9 -10 20 -10 11 -15 20 -10 20 4 0 2 7 -5 15
-7 8 -10 22 -6 30 3 9 -1 18 -10 22 -8 3 -14 13 -13 22 1 9 -1 24 -6 34 -4 9
-5 24 -1 32 3 8 -2 19 -11 23 -9 6 -14 16 -10 25 3 9 2 19 -4 23 -6 3 -9 23
-8 43 2 20 -1 42 -5 49 -4 7 -6 33 -5 59 2 30 -1 48 -9 51 -17 5 -17 233 0
250 6 6 11 32 9 57 -1 25 1 51 5 57 4 7 7 31 5 54 -1 23 2 45 7 48 6 3 8 14 5
25 -3 11 2 21 10 24 10 4 13 13 10 25 -2 11 0 23 5 26 6 3 8 14 5 25 -3 11 2
21 11 24 9 4 13 13 10 21 -3 8 -1 17 4 20 6 3 8 14 5 25 -3 11 2 21 12 25 9 3
14 10 10 15 -3 5 -1 12 5 16 6 4 8 11 4 16 -3 5 0 16 6 24 7 8 9 15 4 15 -4 0
1 7 12 15 10 8 15 15 10 15 -5 0 1 11 14 25 13 14 20 25 16 25 -5 0 -3 7 4 15
7 8 9 15 6 15 -4 0 2 13 13 29 11 15 18 31 15 34 -3 3 4 11 16 17 12 6 19 14
16 18 -4 3 3 15 15 28 11 12 21 29 23 38 1 8 13 27 26 41 13 14 20 25 16 25
-4 0 9 14 28 31 20 17 34 34 33 37 -2 8 294 297 301 293 9 -5 22 3 52 31 19
18 38 33 43 34 4 1 10 3 15 4 4 1 10 2 14 1 4 0 12 8 18 19 6 11 15 18 21 15
5 -4 12 1 15 9 3 9 10 14 14 11 5 -3 11 -1 15 5 4 6 10 8 15 5 5 -3 14 4 20
15 7 12 18 19 25 16 8 -3 17 -1 20 5 4 5 11 7 16 4 5 -4 12 1 15 9 3 9 10 14
14 11 5 -3 11 -1 15 5 4 6 10 8 15 5 5 -3 13 3 19 12 6 10 11 14 11 9 0 -5 7
-3 15 4 8 6 19 9 24 6 5 -4 13 -1 16 5 4 5 13 8 20 5 8 -3 19 2 26 10 7 8 18
13 25 10 7 -3 16 -1 20 5 3 6 12 8 20 5 8 -3 17 1 21 10 3 8 15 14 27 12 11
-1 27 1 34 6 7 4 19 5 27 2 8 -3 19 2 23 11 6 10 17 14 31 10 11 -3 24 -1 27
5 3 5 25 8 48 7 23 -2 47 1 54 5 7 4 33 6 59 5 30 -2 48 1 51 9 5 17 263 17
280 0z m1289 -677 c-2 -6 26 -41 68 -87 11 -12 21 -28 23 -35 2 -8 13 -24 24
-36 12 -13 18 -23 13 -23 -4 0 0 -9 10 -20 11 -12 20 -28 21 -38 2 -9 11 -22
20 -29 10 -7 14 -13 10 -13 -5 0 -3 -7 4 -15 7 -8 9 -15 4 -15 -5 0 0 -7 10
-15 11 -8 16 -15 12 -15 -5 0 -3 -7 4 -15 7 -8 9 -15 5 -15 -4 0 -2 -7 5 -15
7 -8 9 -15 5 -15 -5 0 0 -9 10 -20 10 -11 15 -20 10 -20 -4 0 -2 -7 5 -15 6
-8 9 -19 5 -25 -3 -5 1 -13 10 -16 9 -4 14 -13 11 -20 -3 -7 0 -16 5 -20 6 -3
9 -15 6 -25 -3 -11 1 -23 10 -28 10 -5 14 -15 10 -24 -3 -9 -2 -19 4 -23 6 -3
9 -16 8 -27 -1 -12 1 -30 6 -40 4 -9 5 -27 2 -38 -3 -13 0 -22 9 -26 11 -4 14
-17 13 -44 -2 -21 0 -41 4 -45 9 -9 9 -358 0 -368 -4 -4 -6 -26 -4 -50 2 -31
-2 -45 -13 -49 -9 -4 -12 -13 -9 -26 3 -11 2 -29 -2 -38 -5 -10 -7 -28 -6 -40
1 -11 -2 -24 -7 -27 -6 -3 -8 -16 -5 -27 4 -14 0 -25 -10 -31 -9 -4 -14 -15
-11 -22 3 -8 1 -17 -5 -20 -6 -4 -8 -13 -5 -20 3 -7 -2 -16 -11 -20 -9 -3 -14
-10 -10 -15 3 -5 1 -12 -5 -16 -6 -4 -8 -11 -4 -16 3 -6 -2 -19 -12 -30 -9
-10 -14 -19 -9 -19 4 0 2 -7 -5 -15 -7 -8 -9 -15 -5 -15 4 0 2 -7 -5 -15 -7
-8 -9 -15 -4 -15 5 0 1 -5 -9 -11 -9 -6 -15 -14 -12 -19 3 -5 1 -11 -5 -15 -6
-4 -8 -10 -5 -15 3 -4 -2 -11 -11 -14 -8 -3 -13 -10 -10 -15 3 -5 -1 -14 -9
-21 -8 -7 -13 -16 -10 -20 3 -4 -2 -11 -11 -14 -8 -3 -13 -10 -9 -15 3 -6 -4
-15 -16 -21 -11 -7 -18 -14 -15 -17 5 -5 -12 -29 -57 -83 -6 -8 -12 -18 -12
-22 0 -4 -8 -13 -17 -20 -9 -7 -18 -19 -20 -26 -5 -19 -216 -227 -277 -272
-30 -22 -58 -46 -63 -53 -4 -6 -11 -12 -15 -13 -17 -1 -83 -46 -83 -57 0 -6
-3 -8 -6 -4 -9 8 -64 -21 -64 -34 0 -6 -4 -8 -8 -5 -5 3 -25 -6 -45 -20 -20
-14 -37 -21 -37 -17 0 4 -7 -1 -15 -11 -8 -11 -15 -16 -15 -12 0 5 -7 3 -15
-4 -8 -7 -15 -9 -15 -5 0 4 -7 2 -15 -5 -8 -7 -15 -9 -15 -4 0 5 -7 1 -15 -10
-7 -10 -18 -15 -24 -12 -5 4 -13 1 -16 -5 -4 -5 -13 -8 -21 -5 -8 3 -17 -1
-21 -10 -3 -8 -12 -13 -19 -10 -7 3 -16 1 -19 -5 -4 -5 -11 -7 -16 -4 -5 4
-12 -1 -15 -10 -4 -9 -16 -15 -28 -14 -11 1 -29 -1 -38 -6 -10 -4 -25 -5 -33
-2 -8 4 -17 1 -21 -4 -3 -6 -15 -8 -26 -6 -11 3 -21 0 -25 -9 -3 -9 -16 -14
-32 -12 -14 1 -32 -1 -39 -6 -7 -4 -28 -6 -46 -5 -19 2 -41 -2 -49 -9 -11 -9
-44 -13 -102 -11 -47 1 -88 -1 -92 -5 -8 -8 -68 -8 -76 0 -4 4 -43 6 -88 5
-58 -2 -84 1 -90 10 -5 8 -23 12 -48 10 -22 -1 -46 1 -53 5 -7 5 -25 7 -39 6
-17 -2 -29 3 -32 12 -4 9 -13 13 -22 10 -8 -3 -23 -3 -32 1 -10 5 -25 7 -35 6
-9 -1 -19 3 -22 8 -4 6 -14 7 -23 4 -9 -4 -19 1 -25 10 -4 9 -15 14 -22 11 -8
-3 -17 -1 -20 5 -4 6 -13 8 -20 5 -7 -3 -16 2 -19 10 -4 9 -13 13 -21 10 -8
-3 -31 6 -52 20 -21 14 -41 23 -46 20 -5 -3 -15 0 -23 6 -8 7 -15 9 -15 4 0
-4 -7 1 -15 12 -8 10 -15 15 -15 10 0 -5 -7 -3 -15 4 -8 7 -15 9 -15 4 0 -4
-7 1 -15 12 -8 10 -15 15 -15 10 0 -5 -11 1 -24 13 -13 12 -31 23 -39 25 -9 1
-24 9 -34 17 -10 8 -38 28 -63 44 -48 32 -150 113 -162 130 -4 6 -11 10 -15
10 -9 0 -163 151 -163 160 0 3 9 1 20 -5 11 -6 20 -7 20 -3 0 4 5 0 11 -10 6
-9 15 -15 20 -11 6 3 18 3 27 -1 15 -6 133 -9 147 -4 3 1 10 2 15 3 6 0 15 8
20 16 5 8 10 11 10 6 0 -5 7 -3 15 4 8 7 12 16 9 21 -11 19 21 8 55 -18 20
-16 39 -28 43 -28 4 0 14 -9 22 -20 9 -11 16 -16 16 -11 0 5 7 3 15 -4 8 -7
15 -10 15 -6 0 3 9 -3 20 -14 12 -12 25 -18 30 -15 5 3 11 1 15 -5 4 -6 10 -8
15 -5 4 3 11 -2 14 -11 3 -8 10 -13 15 -9 5 3 12 1 16 -4 3 -6 12 -8 19 -5 7
3 19 -2 26 -10 7 -9 16 -13 22 -10 5 3 17 3 26 -1 9 -4 32 -7 50 -6 18 2 39
-3 47 -9 19 -15 171 -16 189 -1 10 8 81 11 222 11 115 -1 217 2 227 5 9 4 29
5 43 2 17 -3 28 1 31 10 4 9 17 13 37 12 17 -2 37 0 44 5 6 4 17 4 22 1 6 -3
13 1 16 10 4 9 13 14 20 11 7 -3 16 -1 20 5 3 6 55 9 129 8 68 0 128 2 134 6
7 3 32 5 57 4 29 -2 48 2 53 10 5 7 24 12 47 11 22 -2 47 1 57 5 9 4 27 5 38
2 12 -3 22 0 26 9 3 8 15 14 27 13 11 -1 29 2 39 6 10 4 21 5 24 1 4 -3 14 1
24 10 10 9 25 14 33 11 9 -4 18 -2 22 4 3 6 12 8 20 5 7 -3 16 0 20 5 3 6 15
8 26 6 11 -3 21 0 25 9 3 8 12 13 19 10 7 -3 16 -1 19 5 4 5 11 7 16 4 5 -4
12 1 15 10 4 9 13 14 20 11 7 -3 16 -1 19 5 4 5 10 7 14 4 12 -7 45 33 46 56
1 12 -5 23 -12 26 -10 4 -14 20 -12 52 2 26 -1 53 -5 59 -4 7 -6 34 -5 60 1
27 -1 54 -5 60 -4 7 -6 28 -5 46 2 19 -3 41 -10 49 -7 9 -11 35 -10 59 2 24
-1 49 -5 56 -4 7 -6 32 -5 56 2 25 -3 51 -10 60 -7 8 -11 34 -10 60 2 25 0 48
-4 52 -4 4 -7 26 -7 48 0 40 21 68 55 72 6 1 13 3 18 4 4 1 12 3 17 4 6 0 15
8 20 16 5 8 10 12 10 7 0 -12 60 22 60 34 0 6 4 8 9 4 10 -5 85 77 87 95 1 6
2 12 3 15 3 7 2 163 0 173 -1 4 -3 12 -4 17 -3 19 -47 85 -57 85 -5 0 -7 4 -4
8 3 5 -11 23 -30 40 -20 18 -32 32 -28 32 5 0 -27 36 -70 79 -44 44 -82 79
-85 78 -3 -1 -28 21 -54 48 -27 28 -53 50 -57 50 -5 0 -15 7 -22 16 -17 20
-100 84 -110 84 -4 0 -13 7 -20 16 -17 21 -88 73 -88 65 0 -4 -12 6 -26 21
-14 15 -29 28 -32 28 -4 0 -19 9 -34 19 -22 14 -49 18 -130 19 l-103 2 0 35 0
35 419 2 c406 2 458 6 441 33 -3 4 2 10 10 14 8 3 12 12 9 20 -3 8 -1 17 4 20
5 3 7 18 4 33 l-5 28 36 -34 c20 -19 35 -37 34 -40z m-1052 -111 l0 -35 -77
-1 c-60 -2 -83 -6 -106 -23 -16 -11 -32 -18 -35 -15 -3 3 -11 -4 -17 -16 -6
-12 -14 -19 -17 -16 -4 3 -12 1 -20 -5 -10 -9 -17 -8 -28 1 -8 7 -15 9 -15 5
0 -4 -7 -2 -15 5 -8 7 -15 9 -15 4 0 -4 -7 1 -15 12 -8 10 -15 15 -15 10 0 -5
-7 -3 -15 4 -8 7 -15 9 -15 5 0 -5 -9 0 -19 9 -16 15 -41 18 -143 19 -121 2
-123 2 -126 25 -8 54 -20 52 350 50 l343 -3 0 -35z m-544 -169 c-17 -21 -28
-41 -25 -44 3 -3 -4 -10 -15 -17 -12 -6 -19 -15 -17 -19 3 -4 -17 -30 -44 -56
-28 -27 -50 -45 -50 -41 0 5 -6 4 -13 -3 -10 -8 -17 -7 -25 1 -7 7 -12 8 -12
3 0 -5 -13 4 -30 20 -16 15 -27 32 -24 36 2 4 -6 15 -18 23 -12 9 -18 16 -13
16 6 1 -1 10 -14 20 -13 11 -20 20 -16 20 4 0 -2 16 -14 36 -12 19 -21 37 -21
40 0 2 86 4 191 4 l191 0 -31 -39z m755 24 c3 -8 2 -20 -2 -27 -5 -7 -7 -23
-6 -35 2 -11 -2 -24 -8 -28 -5 -3 -8 -10 -5 -15 3 -4 -2 -11 -11 -14 -8 -3
-13 -10 -10 -15 7 -11 -73 -103 -84 -96 -5 3 -13 -3 -19 -12 -8 -14 -12 -16
-22 -5 -7 6 -9 12 -4 12 5 0 -4 13 -19 29 -15 16 -28 32 -27 35 1 3 -1 5 -3 4
-3 -2 -16 8 -30 21 -23 21 -26 33 -26 86 0 34 3 65 7 68 3 4 64 7 135 7 103 0
130 -3 134 -15z m-561 -74 c13 0 19 -28 9 -49 -4 -9 -6 -29 -5 -43 1 -16 -4
-29 -13 -32 -9 -4 -13 -13 -10 -22 3 -8 3 -23 -1 -32 -5 -10 -7 -28 -6 -39 1
-12 -5 -24 -13 -27 -9 -4 -13 -13 -10 -21 3 -8 0 -17 -5 -21 -6 -3 -9 -11 -5
-16 3 -6 -2 -19 -11 -29 -9 -10 -18 -27 -20 -37 -2 -10 -4 -19 -4 -20 -1 -2 0
-5 2 -7 1 -2 -9 -13 -23 -24 -18 -15 -29 -17 -37 -10 -7 6 -13 7 -13 4 0 -4
-18 10 -39 31 -22 21 -39 40 -38 43 1 3 -9 21 -23 40 -14 19 -25 38 -25 42 0
3 -3 10 -7 14 -12 11 -10 36 2 29 6 -3 13 1 16 9 3 9 10 14 15 11 9 -6 103 84
95 92 -3 3 9 17 25 30 16 14 27 28 24 31 -3 3 4 15 16 28 11 12 22 30 24 40 2
11 4 20 4 22 1 2 16 -5 34 -16 17 -12 37 -21 42 -21z m705 2 c0 4 9 -1 19 -10
28 -26 75 -58 82 -56 13 4 7 -56 -7 -61 -7 -3 -11 -12 -8 -20 3 -9 -3 -28 -15
-44 -11 -16 -18 -32 -14 -35 3 -4 0 -13 -7 -22 -7 -8 -9 -15 -4 -15 5 0 -2 -7
-14 -16 -12 -8 -20 -19 -17 -24 3 -5 1 -11 -5 -15 -6 -4 -8 -10 -5 -15 3 -4
-2 -11 -11 -14 -8 -3 -13 -10 -9 -15 6 -10 -22 -28 -40 -27 -13 1 -84 73 -78
79 2 3 -6 13 -19 24 -34 27 -32 39 12 83 23 23 38 45 35 49 -2 5 2 12 10 15 8
3 14 9 13 13 -1 4 6 23 15 41 10 17 15 32 12 32 -4 0 -3 6 1 12 5 7 7 29 5 48
l-3 35 26 -24 c14 -14 26 -21 26 -18z m-1343 21 c-8 -9 21 -64 34 -64 6 0 8
-4 5 -9 -6 -9 33 -66 61 -86 10 -8 14 -15 9 -15 -5 0 10 -20 33 -45 40 -44 50
-68 31 -80 -5 -3 -7 -12 -4 -19 3 -7 -2 -16 -11 -20 -9 -3 -13 -11 -10 -16 4
-6 1 -17 -5 -25 -7 -8 -9 -15 -4 -15 5 0 1 -5 -9 -11 -9 -6 -15 -14 -12 -18 2
-5 -2 -14 -10 -21 -8 -7 -12 -16 -9 -21 3 -5 -2 -12 -11 -15 -10 -4 -25 4 -40
20 -13 15 -23 28 -22 30 1 3 -9 19 -23 38 -14 18 -25 37 -25 41 0 4 -7 12 -15
17 -8 5 -11 10 -6 10 5 0 3 7 -4 15 -6 8 -9 19 -6 24 4 5 -2 14 -11 20 -10 6
-14 11 -9 11 5 0 3 7 -4 15 -6 8 -9 19 -6 24 4 5 1 13 -5 16 -5 4 -8 13 -5 20
3 8 -2 19 -10 26 -8 7 -13 18 -10 24 2 7 0 17 -6 23 -8 8 -3 18 18 34 16 13
38 32 49 43 11 11 23 20 27 20 3 0 10 3 14 8 4 4 10 7 12 7 3 0 3 -3 -1 -6z
m742 -182 c-2 -15 0 -33 5 -40 4 -7 7 -29 5 -50 -1 -20 2 -45 6 -55 4 -9 5
-29 2 -43 -3 -17 1 -28 10 -31 10 -4 14 -19 12 -47 -1 -22 2 -49 6 -59 4 -9 5
-31 3 -48 -3 -21 0 -33 9 -36 10 -4 14 -19 12 -47 -2 -23 1 -47 5 -54 4 -7 7
-29 5 -50 -1 -20 2 -45 6 -55 4 -9 5 -29 2 -43 -3 -17 1 -28 10 -31 10 -4 14
-18 12 -47 -2 -23 1 -47 5 -54 4 -7 6 -31 5 -53 -2 -25 2 -43 10 -48 7 -5 12
-22 10 -42 -2 -19 0 -40 5 -47 4 -7 6 -31 5 -53 -2 -25 2 -43 10 -48 8 -5 12
-24 11 -47 -2 -22 1 -47 5 -57 4 -9 5 -29 2 -42 -2 -14 0 -28 5 -31 5 -3 8
-26 7 -51 -2 -28 2 -47 10 -52 7 -5 12 -23 10 -42 -1 -19 1 -41 5 -50 6 -14 3
-113 -4 -129 -1 -3 -3 -7 -3 -10 -1 -7 -47 -50 -47 -43 0 3 -7 0 -15 -7 -8 -7
-15 -9 -15 -4 0 4 -11 -3 -25 -16 -14 -13 -25 -20 -25 -16 0 5 -7 3 -15 -4 -8
-7 -24 -10 -35 -7 -12 3 -23 -1 -29 -10 -5 -11 -17 -14 -35 -11 -15 3 -29 1
-32 -4 -3 -5 -33 -8 -67 -7 -40 2 -62 -1 -65 -9 -2 -8 -36 -12 -105 -12 -92 0
-103 2 -115 20 -9 16 -12 108 -12 388 1 247 -2 368 -10 370 -14 5 -14 712 1
712 5 0 8 -4 5 -8 -7 -11 2 -21 56 -71 46 -42 49 -43 115 -43 37 1 71 2 76 3
4 1 10 2 15 3 11 2 57 46 48 46 -4 0 4 14 18 31 14 17 24 35 21 39 -3 5 -1 11
4 15 6 3 8 12 5 19 -3 7 2 16 10 19 9 4 12 14 9 25 -2 11 0 23 6 26 5 4 8 13
5 20 -3 7 2 16 10 19 9 4 13 13 10 22 -3 8 -3 23 1 33 5 9 7 27 6 39 -2 22 5
43 15 43 3 0 4 -12 3 -28z m126 8 c10 -11 21 -18 25 -15 4 2 14 -11 23 -30 9
-19 22 -35 28 -35 7 0 9 -10 7 -25 -3 -14 -1 -28 4 -31 5 -3 7 -12 4 -20 -3
-8 1 -17 10 -21 8 -3 13 -12 10 -19 -3 -7 -1 -16 5 -20 6 -3 8 -12 5 -20 -3
-7 2 -18 11 -22 9 -6 14 -16 10 -25 -3 -9 -1 -19 4 -23 6 -3 9 -15 6 -25 -3
-10 -1 -22 5 -25 5 -3 7 -12 4 -20 -3 -7 2 -18 11 -22 9 -6 14 -16 10 -25 -3
-9 -2 -19 4 -23 6 -3 8 -12 5 -20 -3 -8 1 -17 10 -21 8 -3 13 -12 10 -19 -3
-7 -1 -16 5 -20 6 -3 9 -16 8 -27 0 -12 -1 -25 0 -29 1 -5 1 -11 2 -15 0 -5 7
-16 16 -25 8 -10 13 -24 10 -32 -4 -9 -2 -18 4 -22 6 -3 8 -12 5 -20 -3 -7 2
-18 11 -22 9 -6 14 -16 10 -25 -3 -9 -1 -19 4 -23 6 -3 9 -15 6 -25 -3 -11 1
-23 10 -28 10 -5 14 -15 10 -24 -3 -9 -1 -19 4 -23 6 -3 9 -15 6 -25 -3 -10
-1 -22 5 -25 5 -3 8 -15 5 -25 -3 -11 1 -23 10 -28 10 -5 14 -16 10 -30 -3
-11 -1 -24 5 -27 5 -3 7 -12 4 -20 -3 -8 1 -17 10 -21 8 -3 14 -15 13 -27 -1
-11 1 -29 6 -39 4 -9 5 -26 2 -37 -3 -12 1 -24 10 -29 10 -5 14 -16 10 -30 -3
-11 -1 -24 5 -27 5 -3 8 -18 7 -32 -1 -15 2 -35 6 -45 4 -9 5 -27 2 -38 -3
-12 0 -22 9 -26 8 -3 14 -19 14 -37 0 -27 -6 -35 -35 -49 -19 -9 -35 -22 -35
-27 0 -6 -4 -9 -9 -5 -5 3 -12 1 -16 -5 -9 -14 -88 -13 -103 2 -7 7 -12 9 -12
6 0 -3 -14 7 -31 23 -26 24 -30 35 -28 69 2 26 -2 44 -10 49 -7 5 -12 22 -10
42 2 19 0 40 -5 47 -4 7 -7 29 -5 50 1 20 -2 45 -6 55 -4 9 -5 26 -2 37 3 10
-2 25 -10 31 -9 8 -13 27 -12 54 2 22 -1 46 -5 53 -4 7 -6 31 -5 53 2 25 -2
43 -10 48 -7 5 -12 22 -10 42 2 19 0 40 -5 47 -4 7 -6 31 -5 53 2 25 -2 43
-10 48 -8 5 -12 24 -11 47 2 22 -1 47 -5 57 -4 9 -5 29 -2 42 2 14 0 28 -5 31
-5 3 -8 26 -7 51 2 28 -2 47 -10 52 -7 5 -12 22 -10 42 2 19 0 40 -5 47 -4 7
-6 31 -5 53 2 25 -2 43 -10 48 -8 5 -12 24 -11 47 2 22 -1 47 -5 57 -4 9 -5
29 -2 43 3 16 -1 28 -9 31 -15 6 -20 83 -6 83 5 0 17 -9 27 -20z m788 -93 c26
-23 70 -63 98 -89 28 -27 55 -48 60 -48 6 0 7 -5 4 -11 -4 -6 14 -30 39 -55
26 -24 43 -44 39 -44 -3 0 4 -11 17 -25 13 -14 20 -25 16 -25 -5 0 -3 -7 4
-15 7 -8 10 -15 6 -15 -4 0 1 -11 9 -24 14 -21 14 -24 0 -30 -8 -3 -15 -9 -14
-13 1 -4 0 -11 -1 -15 -1 -5 -3 -11 -4 -15 -1 -9 -49 -58 -56 -58 -3 0 -20
-11 -38 -23 -18 -13 -39 -21 -48 -18 -8 3 -17 -1 -20 -8 -4 -9 -20 -13 -50
-12 -25 1 -48 -2 -51 -7 -7 -12 -6 -164 2 -177 3 -6 5 -31 4 -56 -2 -29 2 -48
10 -53 8 -5 12 -25 10 -53 -2 -24 1 -49 5 -56 4 -7 6 -35 5 -63 -2 -33 2 -53
10 -58 8 -5 12 -25 10 -53 -2 -24 1 -49 5 -56 4 -7 6 -34 5 -60 -1 -27 1 -54
5 -60 4 -7 6 -29 5 -50 -2 -21 0 -43 4 -49 9 -14 -40 -46 -59 -39 -8 3 -17 -1
-21 -10 -3 -8 -12 -13 -19 -10 -7 3 -16 1 -20 -5 -3 -6 -12 -8 -20 -5 -8 3
-17 -1 -21 -10 -3 -8 -12 -13 -19 -10 -7 3 -16 1 -20 -5 -3 -6 -16 -9 -27 -8
-12 1 -30 -1 -39 -6 -10 -4 -25 -4 -33 -1 -9 3 -18 -1 -22 -10 -3 -9 -16 -14
-32 -13 -14 1 -34 -2 -44 -6 -9 -4 -27 -5 -38 -2 -13 3 -22 0 -26 -9 -4 -11
-18 -15 -49 -13 -24 2 -46 0 -50 -4 -4 -4 -35 -7 -70 -7 -49 0 -62 3 -60 15 3
22 13 28 33 20 16 -6 131 -9 151 -4 4 1 12 3 17 3 6 1 21 8 35 16 14 8 30 15
37 16 16 3 73 46 73 56 4 64 0 207 -5 221 -4 9 -5 29 -2 42 3 16 -1 29 -11 34
-9 5 -13 16 -9 30 3 11 1 24 -5 27 -5 3 -8 18 -7 32 1 15 -2 35 -6 45 -4 10
-5 21 -1 24 3 4 -1 15 -11 25 -9 10 -13 21 -10 25 4 3 2 12 -4 20 -6 7 -9 22
-6 33 3 12 -1 23 -10 29 -10 5 -14 15 -10 24 3 9 1 19 -4 23 -6 3 -9 15 -6 25
3 10 1 22 -5 25 -5 3 -8 15 -5 25 3 11 -1 23 -10 28 -10 5 -14 16 -10 30 3 11
1 24 -5 27 -5 3 -7 12 -4 20 3 8 -1 17 -10 21 -8 3 -13 12 -10 19 3 7 0 16 -5
20 -6 3 -9 17 -6 31 3 16 -1 27 -10 30 -8 3 -12 12 -9 19 3 7 0 16 -5 20 -6 3
-9 15 -6 25 3 10 1 22 -5 25 -5 3 -7 12 -4 20 3 7 -2 18 -11 22 -10 6 -14 17
-10 31 3 11 1 24 -5 27 -5 3 -7 12 -4 20 3 8 -1 17 -10 21 -8 3 -13 12 -10 19
3 7 1 16 -5 20 -6 3 -8 12 -5 20 3 8 -1 17 -10 21 -9 3 -14 13 -11 24 3 11 1
22 -4 25 -15 9 -10 34 6 28 8 -4 13 -9 10 -13 -2 -4 16 -27 40 -51 25 -24 45
-40 45 -35 0 6 7 1 16 -10 8 -11 19 -21 24 -21 6 -1 12 -2 15 -3 3 -1 28 -3
56 -3 52 -1 84 18 91 52 2 8 8 19 15 25 7 5 13 16 15 24 2 8 11 23 21 33 10
10 15 23 12 28 -3 5 -1 11 5 15 6 4 8 10 5 15 -3 4 2 11 11 14 8 3 13 10 9 15
-3 5 -1 12 5 16 6 4 8 10 5 15 -3 4 2 10 10 14 8 3 12 12 9 20 -3 8 -1 17 4
20 5 3 7 18 4 33 l-5 28 39 -33 c21 -18 60 -52 87 -75z m-1857 67 c-3 -7 -1
-16 5 -20 6 -3 8 -12 5 -20 -3 -8 1 -17 10 -21 8 -3 13 -12 10 -19 -3 -7 -1
-16 5 -19 5 -4 7 -10 4 -15 -3 -5 -1 -11 5 -15 6 -4 8 -11 5 -16 -4 -5 1 -12
9 -15 9 -3 14 -10 11 -14 -3 -5 -1 -11 5 -15 6 -4 8 -11 5 -16 -4 -5 1 -12 9
-15 9 -3 14 -10 11 -14 -3 -5 8 -25 25 -44 17 -19 30 -39 29 -43 -1 -4 15 -21
34 -37 47 -37 128 -41 176 -6 17 12 29 25 26 30 -3 4 2 13 10 20 14 11 15 -53
15 -572 0 -322 2 -591 5 -600 3 -8 4 -63 3 -124 l-3 -109 -94 -3 c-73 -2 -97
0 -103 11 -4 9 -17 12 -32 10 -13 -3 -27 0 -30 6 -4 5 -13 8 -20 5 -7 -3 -16
2 -20 11 -3 9 -11 13 -16 10 -6 -4 -17 -1 -25 5 -8 7 -15 9 -15 6 0 -4 -13 2
-30 14 -17 12 -30 18 -30 14 0 -3 -7 -1 -15 6 -8 7 -15 10 -15 7 0 -3 -14 7
-32 23 -17 16 -34 27 -37 25 -2 -3 -26 15 -52 40 -27 25 -53 45 -59 45 -14 0
-13 37 2 42 8 3 11 21 9 51 -1 26 1 52 5 59 4 6 6 34 5 61 -2 32 2 53 10 58 8
5 12 24 10 53 -1 25 1 51 5 58 4 7 7 31 5 55 -1 23 1 48 5 55 4 6 6 34 5 61
-2 32 2 53 10 58 8 5 12 24 10 53 -1 25 1 51 5 58 4 7 7 32 5 56 -1 24 3 50
10 58 7 9 12 35 10 60 -1 24 1 49 5 56 4 7 7 32 5 56 -2 28 2 48 10 53 8 5 12
25 10 58 -1 28 1 56 5 63 4 7 7 31 5 55 -1 23 1 48 5 55 4 7 7 32 5 56 -2 28
2 48 10 53 8 5 12 25 10 58 -2 44 0 50 14 45 9 -4 14 -13 11 -20z m-137 -106
c-7 -13 -12 -40 -10 -60 1 -21 -1 -43 -5 -50 -4 -6 -6 -33 -5 -60 1 -26 -1
-53 -5 -60 -4 -7 -7 -32 -5 -56 2 -28 -2 -48 -10 -53 -8 -5 -12 -24 -10 -53 1
-25 -1 -51 -5 -58 -4 -6 -6 -34 -5 -61 2 -33 -2 -53 -10 -58 -8 -5 -12 -23
-10 -48 1 -22 -1 -46 -5 -53 -4 -7 -7 -31 -5 -55 1 -23 -1 -48 -5 -55 -4 -6
-6 -34 -5 -61 2 -32 -2 -53 -10 -58 -8 -5 -12 -24 -10 -53 1 -25 -1 -51 -5
-58 -4 -7 -7 -32 -5 -56 2 -28 -2 -48 -10 -53 -8 -5 -12 -25 -10 -58 1 -28 -1
-56 -5 -63 -4 -6 -7 -33 -5 -59 2 -33 -2 -48 -13 -52 -9 -4 -12 -13 -9 -26 3
-11 2 -29 -3 -38 -4 -10 -8 -22 -8 -28 -1 -5 -6 -10 -13 -10 -6 0 -15 -3 -19
-8 -4 -4 -24 -7 -44 -7 -20 0 -40 3 -44 7 -4 5 -11 8 -15 8 -3 0 -19 10 -34
21 -31 25 -38 83 -13 104 8 6 12 18 9 26 -3 8 -2 22 2 32 4 9 7 29 6 44 -1 14
2 29 7 32 6 3 8 16 5 27 -4 14 0 25 10 30 9 5 13 17 10 28 -3 10 0 22 6 25 5
4 7 14 4 23 -4 9 0 19 10 24 9 5 13 17 10 28 -3 10 0 22 6 25 5 4 8 13 4 21
-3 8 -2 23 2 33 4 9 7 29 6 43 -1 16 4 29 13 32 9 4 13 13 10 22 -3 8 -3 23 1
33 5 9 7 27 6 38 -1 12 5 24 13 27 9 4 13 13 10 21 -3 8 -1 17 4 20 6 3 8 16
5 27 -4 14 0 25 10 30 9 5 13 17 10 28 -3 10 0 22 6 25 5 4 8 13 4 21 -3 8 -2
23 2 33 5 9 7 27 6 38 -1 12 5 24 13 27 9 4 13 13 10 21 -3 8 -1 17 4 20 6 3
8 16 5 27 -4 14 0 25 10 31 9 4 14 15 11 22 -3 8 -1 17 4 20 6 3 8 14 5 24 -2
10 2 24 11 31 8 7 13 18 10 26 -3 7 -1 16 4 19 6 3 8 15 5 25 -3 10 0 22 5 25
6 3 8 14 5 25 -3 11 2 21 11 24 9 4 13 13 10 21 -3 8 0 17 5 21 6 3 8 11 5 17
-4 6 0 14 7 19 8 4 14 12 14 16 1 11 25 53 31 53 2 0 -1 -10 -7 -22z"/>
</g>
</svg>
